  0
SECTION
  2
HEADER
  9
$ACADVER
  1
AC1009
  0
ENDSEC
  0
SECTION
  2
ENTITIES
  0
LWPOLYLINE
  8
BLOCK_FRONT_BODICE
 90
4
 70
1
 10
0.0
 20
0.0
 10
40.0
 20
0.0
 10
40.0
 20
45.0
 10
0.0
 20
45.0
  0
LWPOLYLINE
  8
BLOCK_BACK_BODICE
 90
4
 70
1
 10
0.0
 20
0.0
 10
38.0
 20
0.0
 10
38.0
 20
45.0
 10
0.0
 20
45.0
  0
LWPOLYLINE
  8
BLOCK_SLEEVE
 90
6
 70
1
 10
0.0
 20
30.0
 10
17.5
 20
0.0
 10
35.0
 20
30.0
 10
35.0
 20
60.0
 10
0.0
 20
60.0
 10
0.0
 20
30.0
  0
LWPOLYLINE
  8
BLOCK_FRONT_SKIRT
 90
4
 70
1
 10
0.0
 20
0.0
 10
50.0
 20
0.0
 10
50.0
 20
70.0
 10
0.0
 20
70.0
  0
LWPOLYLINE
  8
BLOCK_BACK_SKIRT
 90
4
 70
1
 10
0.0
 20
0.0
 10
50.0
 20
0.0
 10
50.0
 20
70.0
 10
0.0
 20
70.0
  0
LWPOLYLINE
  8
BLOCK_COLLAR
 90
4
 70
1
 10
0.0
 20
0.0
 10
38.0
 20
0.0
 10
38.0
 20
8.0
 10
0.0
 20
8.0
  0
LWPOLYLINE
  8
BLOCK_WAISTBAND
 90
4
 70
1
 10
0.0
 20
0.0
 10
80.0
 20
0.0
 10
80.0
 20
6.0
 10
0.0
 20
6.0
  0
ENDSEC
  0
EOF
